<svg width="1000" height="1000" viewBox="0 0 1000 1000" fill="none" xmlns="http://www.w3.org/2000/svg">
<path d="M0 114C0 51.0396 51.0395 0 114 0H886C948.96 0 1000 51.0395 1000 114V886C1000 948.96 948.96 1000 886 1000H114C51.0396 1000 0 948.96 0 886V114Z" fill="black"/>
<path d="M500.265 840C446.939 840 412.921 805.085 398.21 735.256L377.064 633.268C370.322 600.191 362.66 575.077 354.079 557.926C346.111 540.774 334.771 529.136 320.061 523.011C305.963 516.885 286.349 513.823 261.219 513.823C252.638 513.823 245.895 516.273 240.992 521.173C236.088 525.461 233.636 530.974 233.636 537.712V767.414C233.636 780.277 236.088 789.159 240.992 794.06C245.895 798.347 256.928 802.023 274.09 805.085L308.108 810.598C314.851 811.823 318.222 815.192 318.222 820.705C318.222 828.055 313.625 831.731 304.431 831.731H117.791C108.597 831.731 104 828.362 104 821.624C104 816.111 107.984 812.436 115.952 810.598L137.099 806.923C149.97 804.473 158.245 801.104 161.923 796.816C166.213 792.528 168.359 783.953 168.359 771.089V230.829C168.359 217.966 166.213 209.391 161.923 205.103C158.245 200.815 149.97 197.446 137.099 194.996L115.952 191.321C107.984 189.483 104 185.808 104 180.295C104 173.557 108.597 170.188 117.791 170.188H304.431C340.594 170.188 372.773 177.232 400.969 191.321C429.164 205.409 451.23 225.01 467.166 250.124C483.102 274.626 491.071 303.109 491.071 335.574C491.071 374.164 479.425 409.078 456.133 440.318C432.841 470.945 403.42 492.69 367.87 505.553C363.579 506.779 361.128 508.922 360.515 511.985C360.515 514.435 362.66 516.579 366.951 518.417C386.565 527.605 401.888 540.468 412.921 557.007C424.567 573.545 433.454 595.597 439.584 623.161L459.811 716.88C466.553 748.732 474.521 771.396 483.715 784.871C492.909 798.347 504.555 805.085 518.653 805.085C523.556 805.085 527.847 804.473 531.525 803.248C535.815 801.41 541.025 798.347 547.154 794.06C552.058 790.997 556.655 790.384 560.946 792.222C565.236 793.447 567.381 796.51 567.381 801.41C567.381 811.823 560.639 821.011 547.154 828.974C533.67 836.325 518.04 840 500.265 840ZM295.237 490.852C336.917 490.852 368.483 477.07 389.936 449.506C411.389 421.329 422.115 383.964 422.115 337.411C422.115 292.083 409.55 256.862 384.419 231.748C359.902 206.022 325.884 193.158 282.365 193.158C249.879 193.158 233.636 205.409 233.636 229.911V440.318C233.636 474.008 254.17 490.852 295.237 490.852Z" fill="white"/>
<path d="M748.411 840C703.054 840 663.213 825.912 628.888 797.735C595.177 769.558 568.82 730.049 549.819 679.208C531.431 627.755 522.237 567.114 522.237 497.284C522.237 429.905 532.35 371.101 552.577 320.873C573.417 270.032 601 230.829 635.324 203.265C670.262 175.088 708.877 161 751.169 161C776.3 161 798.366 163.45 817.367 168.35C836.368 172.638 853.224 178.457 867.934 185.808C875.289 190.096 878.967 196.527 878.967 205.103L881.725 344.762C881.725 355.175 878.048 360.382 870.692 360.382C863.95 360.382 859.66 356.4 857.821 348.437L848.627 314.441C835.755 266.663 820.738 233.586 803.576 215.21C787.026 196.834 767.106 187.645 743.814 187.645C700.909 187.645 665.052 214.291 636.244 267.582C608.048 320.26 593.951 396.828 593.951 497.284C593.951 565.889 601 623.774 615.097 670.939C629.808 718.105 648.502 753.632 671.181 777.521C694.473 801.41 718.99 813.354 744.734 813.354C772.316 813.354 794.382 804.779 810.931 787.628C828.093 770.477 842.497 737.4 854.143 688.396L865.176 643.375C867.015 634.187 871.918 630.205 879.886 631.43C886.629 632.655 890 637.862 890 647.05L886.322 795.897C886.322 804.473 882.338 810.904 874.37 815.192C859.66 822.543 842.191 828.362 821.964 832.649C802.35 837.55 777.832 840 748.411 840Z" fill="white"/>
</svg>
